<svg id="visual" viewBox="0 0 960 180" width="960" height="180" xmlns="http://www.w3.org/2000/svg" xmlns:xlink="http://www.w3.org/1999/xlink" version="1.1"><rect x="0" y="0" width="960" height="180" fill="#f9f9f9"></rect><path d="M0 101L14.5 102C29 103 58 105 87.2 101.2C116.3 97.3 145.7 87.7 174.8 84.7C204 81.7 233 85.3 262 92.2C291 99 320 109 349 114.2C378 119.3 407 119.7 436.2 113.3C465.3 107 494.7 94 523.8 92.7C553 91.3 582 101.7 611 106.7C640 111.7 669 111.3 698 108.8C727 106.3 756 101.7 785.2 102.7C814.3 103.7 843.7 110.3 872.8 112.7C902 115 931 113 945.5 112L960 111L960 181L945.5 181C931 181 902 181 872.8 181C843.7 181 814.3 181 785.2 181C756 181 727 181 698 181C669 181 640 181 611 181C582 181 553 181 523.8 181C494.7 181 465.3 181 436.2 181C407 181 378 181 349 181C320 181 291 181 262 181C233 181 204 181 174.8 181C145.7 181 116.3 181 87.2 181C58 181 29 181 14.5 181L0 181Z" fill="#95b1b0"></path><path d="M0 136L14.5 133.5C29 131 58 126 87.2 125.8C116.3 125.7 145.7 130.3 174.8 130.8C204 131.3 233 127.7 262 125.3C291 123 320 122 349 124.3C378 126.7 407 132.3 436.2 134.8C465.3 137.3 494.7 136.7 523.8 132.5C553 128.3 582 120.7 611 118C640 115.3 669 117.7 698 118C727 118.3 756 116.7 785.2 114.7C814.3 112.7 843.7 110.3 872.8 107.8C902 105.3 931 102.7 945.5 101.3L960 100L960 181L945.5 181C931 181 902 181 872.8 181C843.7 181 814.3 181 785.2 181C756 181 727 181 698 181C669 181 640 181 611 181C582 181 553 181 523.8 181C494.7 181 465.3 181 436.2 181C407 181 378 181 349 181C320 181 291 181 262 181C233 181 204 181 174.8 181C145.7 181 116.3 181 87.2 181C58 181 29 181 14.5 181L0 181Z" fill="#4e5d64"></path><path d="M0 154L14.5 152.2C29 150.3 58 146.7 87.2 144.2C116.3 141.7 145.7 140.3 174.8 140C204 139.7 233 140.3 262 138.8C291 137.3 320 133.7 349 133.7C378 133.7 407 137.3 436.2 139.5C465.3 141.7 494.7 142.3 523.8 142C553 141.7 582 140.3 611 141.5C640 142.7 669 146.3 698 148C727 149.7 756 149.3 785.2 149.2C814.3 149 843.7 149 872.8 148.7C902 148.3 931 147.7 945.5 147.3L960 147L960 181L945.5 181C931 181 902 181 872.8 181C843.7 181 814.3 181 785.2 181C756 181 727 181 698 181C669 181 640 181 611 181C582 181 553 181 523.8 181C494.7 181 465.3 181 436.2 181C407 181 378 181 349 181C320 181 291 181 262 181C233 181 204 181 174.8 181C145.7 181 116.3 181 87.2 181C58 181 29 181 14.5 181L0 181Z" fill="#13151a"></path></svg>