<svg id="visual" viewBox="0 0 960 180" width="960" height="180" xmlns="http://www.w3.org/2000/svg" xmlns:xlink="http://www.w3.org/1999/xlink" version="1.1"><rect x="0" y="0" width="960" height="180" fill="#f9f9f9"></rect><path d="M0 93L14.5 89.5C29 86 58 79 87.2 80.3C116.3 81.7 145.7 91.3 174.8 90.8C204 90.3 233 79.7 262 82.7C291 85.7 320 102.3 349 104.8C378 107.3 407 95.7 436.2 82.3C465.3 69 494.7 54 523.8 52.3C553 50.7 582 62.3 611 67.7C640 73 669 72 698 73.5C727 75 756 79 785.2 73C814.3 67 843.7 51 872.8 40.8C902 30.7 931 26.3 945.5 24.2L960 22L960 0L945.5 0C931 0 902 0 872.8 0C843.7 0 814.3 0 785.2 0C756 0 727 0 698 0C669 0 640 0 611 0C582 0 553 0 523.8 0C494.7 0 465.3 0 436.2 0C407 0 378 0 349 0C320 0 291 0 262 0C233 0 204 0 174.8 0C145.7 0 116.3 0 87.2 0C58 0 29 0 14.5 0L0 0Z" fill="#95b1b0"></path><path d="M0 45L14.5 46.3C29 47.7 58 50.3 87.2 55.2C116.3 60 145.7 67 174.8 73C204 79 233 84 262 74.8C291 65.7 320 42.3 349 40.7C378 39 407 59 436.2 65.5C465.3 72 494.7 65 523.8 53.5C553 42 582 26 611 27.8C640 29.7 669 49.3 698 63.3C727 77.3 756 85.7 785.2 80.8C814.3 76 843.7 58 872.8 45.8C902 33.7 931 27.3 945.5 24.2L960 21L960 0L945.5 0C931 0 902 0 872.8 0C843.7 0 814.3 0 785.2 0C756 0 727 0 698 0C669 0 640 0 611 0C582 0 553 0 523.8 0C494.7 0 465.3 0 436.2 0C407 0 378 0 349 0C320 0 291 0 262 0C233 0 204 0 174.8 0C145.7 0 116.3 0 87.2 0C58 0 29 0 14.5 0L0 0Z" fill="#4e5d64"></path><path d="M0 28L14.5 30.5C29 33 58 38 87.2 43.8C116.3 49.7 145.7 56.3 174.8 55.5C204 54.7 233 46.3 262 37.2C291 28 320 18 349 13.3C378 8.7 407 9.3 436.2 15.8C465.3 22.3 494.7 34.7 523.8 34C553 33.3 582 19.7 611 18.8C640 18 669 30 698 38.3C727 46.7 756 51.3 785.2 52.8C814.3 54.3 843.7 52.7 872.8 46.5C902 40.3 931 29.7 945.5 24.3L960 19L960 0L945.5 0C931 0 902 0 872.8 0C843.7 0 814.3 0 785.2 0C756 0 727 0 698 0C669 0 640 0 611 0C582 0 553 0 523.8 0C494.7 0 465.3 0 436.2 0C407 0 378 0 349 0C320 0 291 0 262 0C233 0 204 0 174.8 0C145.7 0 116.3 0 87.2 0C58 0 29 0 14.5 0L0 0Z" fill="#13151a"></path></svg>